<svg xmlns:xlink="http://www.w3.org/1999/xlink" fill="none" viewBox="0 0 142 37" xmlns="http://www.w3.org/2000/svg" class="header__logo" width="142"  height="37" ><g fill="#541E82"><path d="m6.527 9.14299c.63857-.90779 1.49547-1.64015 2.49165-2.1295.99615-.48935 2.09955-.71995 3.20835-.6705 1.2064-.01388 2.4012.23607 3.5008.73234s2.0775 1.22687 2.8652 2.14066c1.778 2.00921 2.7097 4.62831 2.6 7.30901.0948 2.686-.8522 5.3048-2.643 7.309-.7719.9071-1.7344 1.6328-2.8188 2.1254-1.0845.4927-2.2642.7401-3.4552.7246-1.1521.0293-2.29177-.2441-3.30526-.7928-1.0135-.5487-1.8654-1.3535-2.47074-2.3342v12.664h-6.5v-29.69401h6.527zm7.125 11.00901c.4551-.4787.8064-1.0463 1.0319-1.6672.2254-.6209.3201-1.2816.2781-1.9408.0419-.6627-.0528-1.3269-.2781-1.9515-.2254-.6246-.5766-1.1962-1.0319-1.6795-.3938-.4052-.8646-.7277-1.3846-.9486-.5201-.221-1.079-.3359-1.6441-.338-.565-.0021-1.12479.1085-1.64652.3255-.52172.217-.99489.5359-1.39178.9381-.45514.4787-.80644 1.0463-1.03187 1.6672-.22542.6208-.32012 1.2816-.27813 1.9408-.04188.6627.05278 1.3269.27812 1.9515.22534.6245.57655 1.1962 1.03188 1.6795.3939.4066.86539.73 1.38654.951.52115.2211 1.08136.3353 1.64746.336 1.1388-.003 2.2299-.4575 3.034-1.264" fill="#541E82"></path><path d="m55.8949 21.006h1.9541v5.079h-2.9001c-2.229 0-4.0679-.322-5.3089-1.31-1.218-.988-1.9541-2.505-1.9541-4.9v-8.3h-1.444v-5.048h1.448v-5.079h6.55v5.079h3.631v5.079h-3.629v8.3c0 .9.437 1.1 1.655 1.1" fill="#541E82"></path><path d="m69.2929 0h-6.665v26.086h6.665z" fill="#541E82"></path><path d="m98.573 6.52698h6.711l4.3 13.85902 4.3-13.85902h6.711l-7.056 19.55802h-7.906z" fill="#541E82"></path></g><path d="m84.715 7.88299c.8705-.75274 1.8881-1.31632 2.988-1.655 5.608-1.632 10 2.781 9.078 8.22801-.4336 2.1523-1.4698 4.137-2.988 5.723-2.359 2.686-5.2056 4.9007-8.389 6.527-.1695.1352-.3737.2199-.5892.2443-.2154.0244-.4334-.0125-.6288-.1063-3.9813-1.9389-7.4178-4.8376-10-8.435-1.0883-1.4918-1.6976-3.2791-1.747-5.125 0-2.712.919-5.03301 3.355-6.43501 1.1434-.67035 2.4488-1.01411 3.7741-.99383 1.3252.02027 2.6195.40381 3.7419 1.10883.4921.26563.9605.5731 1.4.919" fill="#F24783"></path><g fill="#541E82"><path d="m43.6439 18.82c.0902-.6934.1363-1.3918.138-2.091.1106-1.3755-.0751-2.7587-.5444-4.0563-.4694-1.2976-1.2115-2.4795-2.1764-3.46599-.9649-.98648-2.1301-1.75461-3.417-2.25258-1.2869-.49798-2.6656-.71422-4.0432-.63416-1.3164-.05071-2.6293.16773-3.8584.64196-1.229.47422-2.3484 1.19426-3.2896 2.11604-.9385.98123-1.6671 2.14353-2.1413 3.41583-.4742 1.2724-.684 2.628-.6167 3.9842-.0451 1.9308.4144 3.8401 1.333 5.539.115.184.207.368.322.529.046.069.092.138.161.23.115.161.23.3.345.46.1942.2409.4015.4709.621.689.937.9303 2.0546 1.6587 3.284 2.1403s2.5445.7061 3.864.6597h.253c1.3196.0486 2.6354-.1708 3.8679-.6448s2.3562-1.1929 3.3031-2.1132c1.0418-1.0267 1.8084-2.2991 2.229-3.7h-6.5c-.3888.4502-.8733.8077-1.4182 1.0463s-1.1363.3523-1.7308.3327c-1.954 0-3.562-1.2-3.654-2.666v-.138h13.675zm-12.411-6.55c.6927-.5613 1.5687-.8462 2.459-.8.9137-.0298 1.8086.263 2.528.827.6633.5509 1.0975 1.3292 1.218 2.183h-7.469c.1768-.8511.6194-1.6239 1.264-2.207z" fill="#541E82"></path><path d="m140.862 18.82c.09-.6934.136-1.3918.138-2.091.111-1.3755-.075-2.7587-.545-4.0563-.469-1.2976-1.211-2.4795-2.176-3.46599-.965-.98648-2.13-1.75461-3.417-2.25258-1.287-.49798-2.665-.71422-4.043-.63416-1.316-.05077-2.629.16765-3.858.64188-1.23.47423-2.349 1.19429-3.29 2.11612-.939.98123-1.667 2.14353-2.141 3.41583-.475 1.2723-.684 2.628-.617 3.9842-.045 1.9308.414 3.8401 1.333 5.539.115.184.207.368.322.529.046.069.092.138.161.23.115.161.23.3.345.46.194.2409.401.4709.62.689.937.9303 2.055 1.6587 3.284 2.1403s2.544.7061 3.864.6597h.253c1.32.0486 2.635-.1708 3.868-.6448 1.232-.474 2.356-1.1929 3.303-2.1132 1.042-1.0267 1.808-2.2991 2.229-3.7h-6.5c-.389.4501-.873.8076-1.418 1.0462-.544.2386-1.136.3523-1.73.3328-1.954 0-3.562-1.2-3.654-2.666v-.138h13.675zm-12.411-6.55c.693-.5613 1.569-.8462 2.459-.8.914-.0298 1.809.263 2.528.827.663.5509 1.098 1.3292 1.218 2.183h-7.469c.177-.8511.619-1.6239 1.264-2.207z" fill="#541E82"></path></g></svg>