<svg xmlns="http://www.w3.org/2000/svg" xmlns:xlink="http://www.w3.org/1999/xlink" viewBox="0 0 71.14 77"><defs><style>.cls-1{fill:url(#linear-gradient);}.cls-2{fill:#ffb41f;}.cls-3{fill:#a3771d;}.cls-4{fill:#1cc8eb;}.cls-5{fill:#b9effa;}.cls-6{fill:#f7e5be;}.cls-7{fill:#8c8c8c;}.cls-8{fill:#74d5e8;}</style><linearGradient id="linear-gradient" x1="46.52" y1="115.05" x2="28.98" y2="-2.48" gradientUnits="userSpaceOnUse"><stop offset="0.29" stop-color="#f6f6f6" stop-opacity="0"/><stop offset="1" stop-color="#e4e3e3"/></linearGradient></defs><title>Asset 3</title><g id="Layer_2" data-name="Layer 2"><g id="Layer_1-2" data-name="Layer 1"><circle class="cls-1" cx="34.5" cy="34.5" r="34.5"/><path class="cls-2" d="M30.17,11A6.83,6.83,0,0,0,37,17.83,6.83,6.83,0,0,0,30.17,11Z"/><path class="cls-2" d="M43.83,11A6.83,6.83,0,0,0,37,17.83,6.83,6.83,0,0,0,43.83,11Z"/><path class="cls-3" d="M51.79,17.83H22.21v23.9H51.79Z"/><path class="cls-4" d="M37,38.31,32.45,25.79H26.76L37,39.45,47.24,25.79H41.55Z"/><path class="cls-4" d="M37,21.24l4.55,4.55h5.69l-3.41-4.55Z"/><path class="cls-4" d="M37,21.24H30.17l-3.41,4.55h5.69Z"/><path class="cls-4" d="M37,25.79h4.55L37,21.24l-4.55,4.55Z"/><path class="cls-4" d="M32.45,25.79,37,38.31l4.55-12.52Z"/><path class="cls-5" d="M48.15,25.11l-3.41-4.55a1.14,1.14,0,0,0-.91-.46H30.17a1.14,1.14,0,0,0-.91.46l-3.41,4.55a1.14,1.14,0,0,0,0,1.37L36.09,40.13a1.14,1.14,0,0,0,1.82,0L48.15,26.48A1.14,1.14,0,0,0,48.15,25.11ZM45,24.66H42l-2.28-2.28h3.51ZM31.65,26.93l2.46,6.77L29,26.93Zm8.28,0L37,35l-2.93-8ZM35.2,24.66l1.8-1.8,1.8,1.8Zm7.15,2.28H45l-5.08,6.77ZM30.74,22.38h3.51L32,24.66H29Z"/><path class="cls-6" d="M66,46.28h-.24a4,4,0,0,0-2.62,1l-9.12,8.11H41.55l6.8-1.86a3.44,3.44,0,1,0-2-6.58L34.72,50.83H17.66L12,56.52,25.62,70.17l8-5.69H56.34L68.72,53.14A4,4,0,0,0,66,46.28Z"/><path class="cls-7" d="M22.21,41.72H4v4.55H70V41.72Z"/><path class="cls-2" d="M56.34,14.41h2.28v2.28H56.34Z"/><path class="cls-2" d="M58.62,12.14H60.9v2.28H58.62Z"/><path class="cls-2" d="M60.9,14.41h2.28v2.28H60.9Z"/><path class="cls-2" d="M58.62,16.69H60.9V19H58.62Z"/><path class="cls-2" d="M68.86,11h2.28v2.28H68.86Z"/><path class="cls-2" d="M59.76,23.52H62v2.28H59.76Z"/><path class="cls-2" d="M13.1,22.38h2.28v2.28H13.1Z"/><path class="cls-2" d="M13.1,26.93h2.28v2.28H13.1Z"/><path class="cls-2" d="M15.38,24.66h2.28v2.28H15.38Z"/><path class="cls-2" d="M10.83,24.66H13.1v2.28H10.83Z"/><path class="cls-2" d="M2.86,16.69H5.14V19H2.86Z"/><path class="cls-2" d="M13.1,11h2.28v2.28H13.1Z"/><path class="cls-4" d="M25.62,70.17,9.69,54.24,4,59.93,21.07,77l5.69-5.69Z"/><path class="cls-8" d="M8.55,58.79a1.14,1.14,0,0,1,1.61,0L12,60.6a1.14,1.14,0,0,1-1.61,1.61l-1.8-1.8A1.14,1.14,0,0,1,8.55,58.79Z"/></g></g></svg>