<svg xmlns="http://www.w3.org/2000/svg" xmlns:xlink="http://www.w3.org/1999/xlink" viewBox="0 0 75.95 69"><defs><style>.cls-1{fill:url(#linear-gradient);}.cls-2{fill:#ff9a15;}.cls-3{fill:#fff;}</style><linearGradient id="linear-gradient" x1="47.5" y1="115.05" x2="29.96" y2="-2.48" gradientUnits="userSpaceOnUse"><stop offset="0.29" stop-color="#f6f6f6" stop-opacity="0"/><stop offset="1" stop-color="#e4e3e3"/></linearGradient></defs><title>Asset 1</title><g id="Layer_2" data-name="Layer 2"><g id="Layer_1-2" data-name="Layer 1"><circle class="cls-1" cx="35.48" cy="34.5" r="34.5"/><path d="M38.83,53.61a4,4,0,0,1-7.9,0H27.37a7.51,7.51,0,0,0,15,0Z"/><path d="M15.51,53.61a4,4,0,0,1-7.9,0H4a7.51,7.51,0,0,0,15,0Z"/><path d="M49.93,21.94V53.6h5.54s0,0,0-.06a7.52,7.52,0,0,0,15,0,.57.57,0,0,1,0,.06H76V38.1L65.85,21.94ZM72.39,50H69.61a7.46,7.46,0,0,0-13.23,0H53.49V25.5H63.88l8.51,13.63V50ZM63,57.51a4,4,0,1,1,4-4A4,4,0,0,1,63,57.51Z"/><polygon points="56.26 28.19 56.26 33.64 65.22 33.64 62.25 28.19 56.26 28.19"/><path class="cls-2" d="M0,53.61H46.34V12.93H0Z"/><path class="cls-3" d="M5.36,22.61h7v1.82H7.58v3.35H12v1.82H7.58v5.15H5.36Z"/><path class="cls-3" d="M14.07,22.77a21,21,0,0,1,3.35-.25,5.63,5.63,0,0,1,3.75,1,3.08,3.08,0,0,1,1,2.43A3.24,3.24,0,0,1,20,29V29a3.08,3.08,0,0,1,1.69,2.34,24.2,24.2,0,0,0,1,3.39H20.37a17.24,17.24,0,0,1-.81-2.86c-.34-1.58-.92-2.09-2.18-2.13H16.26v5h-2.2Zm2.2,5.37h1.32c1.49,0,2.43-.79,2.43-2s-.94-1.95-2.38-1.95a6.29,6.29,0,0,0-1.37.11Z"/><path class="cls-3" d="M31.1,29.36H26.52v3.57h5.11v1.82H24.31V22.61h7.06v1.82H26.52v3.13H31.1Z"/><path class="cls-3" d="M40.36,29.36H35.79v3.57H40.9v1.82H33.57V22.61h7.06v1.82H35.79v3.13h4.57Z"/><path class="cls-3" d="M5.53,42.53A3,3,0,0,0,7,42.9c.69,0,1.07-.32,1.07-.8s-.3-.71-1-1c-1-.35-1.59-.86-1.59-1.71s.8-1.69,2.08-1.69a3.12,3.12,0,0,1,1.42.3l-.26.86a2.49,2.49,0,0,0-1.17-.28c-.68,0-1,.37-1,.71s.34.66,1.13,1c1,.38,1.52.9,1.52,1.75s-.72,1.76-2.23,1.76a3.53,3.53,0,0,1-1.59-.37Z"/><path class="cls-3" d="M11.16,37.81v2.36h2.49V37.81h1.07V43.7H13.65V41.11H11.16V43.7H10.09V37.81Z"/><path class="cls-3" d="M17,37.81V43.7H16V37.81Z"/><path class="cls-3" d="M18.26,37.89a9.41,9.41,0,0,1,1.64-.12,2.67,2.67,0,0,1,1.74.48,1.67,1.67,0,0,1,.57,1.3,1.77,1.77,0,0,1-.51,1.33,2.6,2.6,0,0,1-1.86.63,3,3,0,0,1-.52,0V43.7H18.26Zm1.07,2.74a2.13,2.13,0,0,0,.52,0c.8,0,1.29-.39,1.29-1.08s-.45-1-1.2-1a3,3,0,0,0-.62.05Z"/><path class="cls-3" d="M23.13,37.89a9.41,9.41,0,0,1,1.64-.12,2.67,2.67,0,0,1,1.74.48,1.67,1.67,0,0,1,.57,1.3,1.77,1.77,0,0,1-.51,1.33,2.6,2.6,0,0,1-1.86.63,3,3,0,0,1-.52,0V43.7H23.13Zm1.07,2.74a2.13,2.13,0,0,0,.52,0c.8,0,1.29-.39,1.29-1.08s-.45-1-1.2-1a3,3,0,0,0-.62.05Z"/><path class="cls-3" d="M29.09,37.81V43.7H28V37.81Z"/><path class="cls-3" d="M30.32,43.7V37.81h1.23l1.52,2.52a16.29,16.29,0,0,1,1,2h0C34,41.52,34,40.76,34,39.86V37.81h1V43.7H33.87l-1.54-2.59a20.17,20.17,0,0,1-1.05-2h0c0,.76.05,1.53.05,2.51V43.7Z"/><path class="cls-3" d="M40.93,43.43a5.75,5.75,0,0,1-1.9.33A3.17,3.17,0,0,1,36.73,43a2.9,2.9,0,0,1-.82-2.16,3,3,0,0,1,3.28-3.06,3.92,3.92,0,0,1,1.56.28l-.24.86a3.17,3.17,0,0,0-1.33-.25A2,2,0,0,0,37,40.76a2,2,0,0,0,2,2.13,2,2,0,0,0,.81-.12V41.3h-1v-.85h2.08v3Z"/></g></g></svg>