<svg xmlns="http://www.w3.org/2000/svg" xmlns:xlink="http://www.w3.org/1999/xlink" viewBox="0 0 69 71.78"><defs><style>.cls-1{fill:url(#linear-gradient);}.cls-2{fill:#e95454;}.cls-3{fill:#ed6362;}.cls-4{fill:#ffcc5b;}.cls-5{fill:#fdbc4b;}.cls-6{fill:#ffdb70;}.cls-7{fill:#fff;opacity:0.2;isolation:isolate;}.cls-8{fill:#ec9922;}</style><linearGradient id="linear-gradient" x1="46.52" y1="115.05" x2="28.98" y2="-2.48" gradientUnits="userSpaceOnUse"><stop offset="0.29" stop-color="#f6f6f6" stop-opacity="0"/><stop offset="1" stop-color="#e4e3e3"/></linearGradient></defs><title>Asset 2</title><g id="Layer_2" data-name="Layer 2"><g id="Layer_1-2" data-name="Layer 1"><circle class="cls-1" cx="34.5" cy="34.5" r="34.5"/><polygon class="cls-2" points="22.26 36.7 8.76 62.13 21.02 60.99 26.95 71.78 40.45 46.35 22.26 36.7"/><path class="cls-3" d="M23.8,64.38A1.72,1.72,0,0,0,23,62.17l-.78-.41a1.66,1.66,0,0,1,1.6-2.91L26,60a1.39,1.39,0,0,0,1.88-.58l.05-.1a1.31,1.31,0,0,0-.5-1.85L20.87,54a1.73,1.73,0,0,1-.82-2.21A1.67,1.67,0,0,1,22.34,51l6.09,3.23a1.4,1.4,0,0,0,1.89-.58l0-.09v0a1.46,1.46,0,0,0-.6-2l-3.42-1.81a1.73,1.73,0,0,1-.81-2.22,1.67,1.67,0,0,1,2.29-.77l3.77,2a1.41,1.41,0,0,0,1.91-.65v0A1.41,1.41,0,0,0,33,46.15L28.92,44a1.72,1.72,0,0,1-.81-2.2A1.67,1.67,0,0,1,30.4,41l10,5.33L26.94,71.78,23.22,65A1.58,1.58,0,0,0,23.8,64.38Z"/><polygon class="cls-3" points="47.5 36.7 61 62.13 48.74 60.99 42.81 71.78 29.32 46.35 47.5 36.7"/><path class="cls-2" d="M46,64.38a1.72,1.72,0,0,1,.81-2.21l.78-.41a1.66,1.66,0,0,0-1.6-2.91L43.75,60a1.39,1.39,0,0,1-1.88-.58l-.05-.1a1.31,1.31,0,0,1,.5-1.85L48.89,54a1.73,1.73,0,0,0,.82-2.21A1.67,1.67,0,0,0,47.42,51l-6.09,3.23a1.4,1.4,0,0,1-1.89-.58l0-.09v0a1.46,1.46,0,0,1,.6-2l3.42-1.81a1.73,1.73,0,0,0,.81-2.22,1.67,1.67,0,0,0-2.29-.77l-3.78,2a1.41,1.41,0,0,1-1.91-.65v0a1.41,1.41,0,0,1,.54-1.95L40.84,44a1.72,1.72,0,0,0,.81-2.2A1.67,1.67,0,0,0,39.36,41l-10,5.33,13.5,25.43L46.53,65A1.61,1.61,0,0,1,46,64.38Z"/><circle class="cls-4" cx="34.88" cy="32.53" r="22.55"/><path class="cls-5" d="M37.94,29.94H23.65a2,2,0,0,1-2-2l0-.14v0a2.11,2.11,0,0,1,2.12-2.13h9.9a2.51,2.51,0,0,0,2.55-2.29A2.42,2.42,0,0,0,33.8,20.8H23.31a2,2,0,0,1-2-2.13v-.06a2,2,0,0,1,2-2.13h11a2.5,2.5,0,0,0,2.53-2.27,2.41,2.41,0,0,0-2.41-2.53h-8a22.55,22.55,0,0,0,0,41.71H36.58a2.5,2.5,0,0,0,2.53-2.27,2.41,2.41,0,0,0-2.41-2.53H25.09A2.4,2.4,0,0,1,22.69,46a2.5,2.5,0,0,1,2.54-2.27h4.5A2.41,2.41,0,0,0,29.66,39H22.83a2,2,0,0,1-2-2v-.17a1.9,1.9,0,0,1,1.9-2H37.8a2.5,2.5,0,0,0,2.55-2.27A2.41,2.41,0,0,0,37.94,29.94Z"/><path class="cls-6" d="M34.88,48.63A16.1,16.1,0,1,1,51,32.53,16.12,16.12,0,0,1,34.88,48.63Z"/><path class="cls-7" d="M51,32.53A16.1,16.1,0,0,0,35.8,16.48H34.3a1.91,1.91,0,0,0-1.93,1.73,1.84,1.84,0,0,0,1.84,1.93h8.86a1.83,1.83,0,0,1,1.83,1.93A1.9,1.9,0,0,1,43,23.81H39.53a1.83,1.83,0,0,0,.05,3.67h5.21A1.53,1.53,0,0,1,46.32,29v.13a1.45,1.45,0,0,1-1.45,1.54H33.37a1.91,1.91,0,0,0-1.94,1.73,1.84,1.84,0,0,0,1.84,1.93h10.9a1.55,1.55,0,0,1,1.54,1.54V36a1.61,1.61,0,0,1-1.61,1.63H36.53a1.91,1.91,0,0,0-1.94,1.74,1.85,1.85,0,0,0,1.84,1.93h8A1.56,1.56,0,0,1,46,43v0a1.56,1.56,0,0,1-1.53,1.63H36a1.91,1.91,0,0,0-1.93,1.73A1.84,1.84,0,0,0,36,48.29h2.21A16.12,16.12,0,0,0,51,32.53Z"/><path class="cls-8" d="M46.12,29H38.29l-2.42-7.45a1,1,0,0,0-2,0L31.47,29H23.64A1,1,0,0,0,23,30.84l6.33,4.6-2.42,7.45a1,1,0,0,0,1.6,1.16l6.33-4.6,6.33,4.6a1,1,0,0,0,1.6-1.16l-2.42-7.45,6.33-4.6A1,1,0,0,0,46.12,29Z"/></g></g></svg>